<svg id="eG0VJanSOeK1" xmlns="http://www.w3.org/2000/svg" xmlns:xlink="http://www.w3.org/1999/xlink" viewBox="0 0 500 500" shape-rendering="geometricPrecision" text-rendering="geometricPrecision"><style><![CDATA[#eG0VJanSOeK4_to {animation: eG0VJanSOeK4_to__to 1500ms linear infinite normal forwards}@keyframes eG0VJanSOeK4_to__to { 0% {transform: translate(249.97496px,191.324412px)} 46.666667% {transform: translate(250.000076px,122.946901px)} 100% {transform: translate(249.97496px,191.324412px)}} #eG0VJanSOeK5_to {animation: eG0VJanSOeK5_to__to 1500ms linear infinite normal forwards}@keyframes eG0VJanSOeK5_to__to { 0% {transform: translate(202.297638px,271.689178px)} 46.666667% {transform: translate(122.13421px,292.793348px)} 100% {transform: translate(199.797561px,271.689177px)}} #eG0VJanSOeK6_to {animation: eG0VJanSOeK6_to__to 1500ms linear infinite normal forwards}@keyframes eG0VJanSOeK6_to__to { 0% {transform: translate(297.902168px,271.833626px)} 46.666667% {transform: translate(359.526345px,298.921008px)} 100% {transform: translate(300.434668px,271.744636px)}}]]></style><g id="eG0VJanSOeK2"><g id="eG0VJanSOeK3"><g id="eG0VJanSOeK4_to" transform="translate(249.97496,191.324412)"><path id="eG0VJanSOeK4" d="M329.1,185.4L254.8,157.7C251.2,156.4,247.2,156.4,243.6,157.8L170.6,185.8C166.2,187.5,166.1,193.6,170.4,195.5L241.2,225.8C246.7,228.2,253,228.2,258.6,225.8L329.2,195.3C334,193.4,333.8,187.1,329.1,185.4ZM249.6,196.7C241.7,196.8,235.3,193.6,235.3,189.6C235.3,185.6,241.6,182.2,249.5,182.1C257.4,182,263.8,185.2,263.8,189.2C263.8,193.3,257.5,196.6,249.6,196.7Z" transform="translate(-249.97496,-192.168579)" fill="rgb(243,179,64)" stroke="none" stroke-width="1"/></g><g id="eG0VJanSOeK5_to" transform="translate(202.297638,271.689178)"><path id="eG0VJanSOeK5" d="M174.4,303.5C169.3,303.5,165.2,298.2,165.2,291.7C165.2,285.2,169.3,279.9,174.4,279.9C179.5,279.9,183.6,285.2,183.6,291.7C183.6,291.8,183.6,292,183.6,292.1L244.1,318.7C245.6,319.3,247.2,318.3,247.2,316.7L247.2,266.2C247.2,265.3,246.7,264.5,245.9,264.2L234.6,259.2C233.7,258.8,232.6,259,232,259.8C230.3,261.9,228.1,263.2,225.6,263.2C220.5,263.2,216.4,257.9,216.4,251.4C216.4,244.9,220.5,239.6,225.6,239.6C230.7,239.6,234.8,244.9,234.8,251.4C234.8,251.7,234.8,252,234.8,252.3L244.3,256.5C245.8,257.1,247.4,256.1,247.4,254.5L247.4,239.8C247.4,236.3,245.3,233,242,231.6L169.6,200.3C163.7,197.8,157.2,202.1,157.2,208.5L157.2,248.3C157.2,249.2,157.7,250,158.5,250.3L190.7,264.4C191.6,264.8,192.7,264.6,193.3,263.8C195,261.7,197.2,260.4,199.7,260.4C204.8,260.4,208.9,265.7,208.9,272.2C208.9,278.7,204.8,284,199.7,284C194.6,284,190.5,278.7,190.5,272.2C190.5,272.2,190.5,272.2,190.5,272.2L160.3,258.9C158.8,258.3,157.2,259.3,157.2,260.9L157.2,296.3C157.2,298.8,157,308.1,159.2,309.3L237.5,343C242,345.4,247.3,342.1,247.3,337.1L247.3,329C247.3,328.1,246.8,327.3,246,327L183.6,299.6C182.7,299.2,181.6,299.4,181,300.2C179.2,302.2,176.9,303.5,174.4,303.5Z" transform="translate(-202.297638,-271.689178)" fill="rgb(243,179,64)" stroke="none" stroke-width="1"/></g><g id="eG0VJanSOeK6_to" transform="translate(297.902168,271.833626)"><path id="eG0VJanSOeK6" d="M343,296.5L343,208.4C343,202.1,336.6,197.9,330.8,200.4L284.5,220.4C283.8,220.7,283.3,221.4,283.3,222.3L283.3,243C283.3,243.8,283.8,244.5,284.6,244.8C288.3,246.3,290.9,250.8,290.9,256C290.9,262.5,286.8,267.8,281.7,267.8C276.6,267.8,272.5,262.5,272.5,256C272.5,252.1,274,248.6,276.3,246.5C276.7,246.1,276.9,245.6,276.9,245.1L276.9,226.9C276.9,225.4,275.4,224.5,274.1,225L258.1,231.9C254.9,233.3,252.8,236.4,252.8,239.9L252.8,337.3C252.8,342.3,258.2,345.6,262.6,343.2L317.7,319.5C318.4,319.2,318.9,318.5,318.9,317.6L318.9,298C318.9,297.2,318.5,296.5,317.8,296.2C314.4,294.4,312.1,290.2,312.1,285.3C312.1,278.8,316.2,273.5,321.3,273.5C326.4,273.5,330.5,278.8,330.5,285.3C330.5,289.5,328.7,293.3,326.1,295.3C325.6,295.7,325.4,296.2,325.4,296.8L325.4,313C325.4,314.5,326.9,315.4,328.2,314.9L340.9,309.4C343.2,308.4,343,299,343,296.5Z" transform="translate(-297.902168,-271.833626)" fill="rgb(243,179,64)" stroke="none" stroke-width="1"/></g></g></g></svg>